<?xml version="1.0" encoding="UTF-8" standalone="no" ?>
<!DOCTYPE svg PUBLIC "-//W3C//DTD SVG 1.1//EN" "http://www.w3.org/Graphics/SVG/1.1/DTD/svg11.dtd">
<svg
  xmlns="http://www.w3.org/2000/svg"
  xmlns:xlink="http://www.w3.org/1999/xlink"
  version="1.1"
  width="150"
  height="150"
  viewBox="0 0 150 150"
  xml:space="preserve"
>
  <desc>Created with Fabric.js 5.2.4</desc>
  <defs></defs>
  <g transform="matrix(1 0 0 1 75 75)" id="e4231cad-46dd-4555-9d48-0b6b9e510b4d">
    <rect
      style="
        stroke: none;
        stroke-width: 1;
        stroke-dasharray: none;
        stroke-linecap: butt;
        stroke-dashoffset: 0;
        stroke-linejoin: miter;
        stroke-miterlimit: 4;
        fill: rgb(0, 0, 0);
        fill-rule: nonzero;
        opacity: 1;
        visibility: hidden;
      "
      vector-effect="non-scaling-stroke"
      x="-75"
      y="-75"
      rx="0"
      ry="0"
      width="150"
      height="150"
    />
  </g>
  <g transform="matrix(Infinity NaN NaN Infinity 0 0)" id="8894be0c-f0f9-455e-8f5c-3d97da2da131"></g>
  <g transform="matrix(1.22 0 0 1.22 125.32 45.79)">
    <g style="" vector-effect="non-scaling-stroke">
      <g transform="matrix(1 0 0 1 0 0)">
        <rect
          style="
            stroke: none;
            stroke-width: 1;
            stroke-dasharray: none;
            stroke-linecap: butt;
            stroke-dashoffset: 0;
            stroke-linejoin: miter;
            stroke-miterlimit: 4;
            fill: rgb(0, 0, 0);
            fill-rule: nonzero;
            opacity: 1;
            visibility: hidden;
          "
          vector-effect="non-scaling-stroke"
          x="-540"
          y="-540"
          rx="0"
          ry="0"
          width="1080"
          height="1080"
        />
      </g>
      <g transform="matrix(0.99 0 0 1 -41.55 24.26)">
        <path
          style="
            stroke: rgb(0, 0, 0);
            stroke-width: 0;
            stroke-dasharray: none;
            stroke-linecap: butt;
            stroke-dashoffset: 0;
            stroke-linejoin: miter;
            stroke-miterlimit: 4;
            fill: rgb(0, 0, 0);
            fill-rule: nonzero;
            opacity: 0.99;
          "
          vector-effect="non-scaling-stroke"
          transform=" translate(-187.5, -187.5)"
          d="M 169.863281 189.992188 L 147.027344 189.992188 L 147.03125 224.011719 L 142.03125 224.011719 L 142.03125 184.996094 L 169.863281 184.996094 L 169.863281 126.898438 L 232.957031 126.898438 L 232.957031 138.082031 L 227.960938 138.082031 L 227.960938 131.894531 L 174.859375 131.894531 L 174.859375 227.960938 L 184.996094 227.960938 C 184.996094 199.40625 184.992188 170.847656 184.996094 142.292969 L 184.996094 142.03125 L 248.089844 142.03125 L 248.09375 205.128906 L 209.078125 205.128906 L 209.078125 200.128906 L 243.09375 200.128906 L 243.09375 147.027344 L 205.128906 147.027344 L 205.128906 184.996094 L 227.960938 184.996094 L 227.960938 150.980469 L 232.957031 150.976562 L 232.957031 189.992188 L 205.128906 189.992188 L 205.128906 248.09375 L 142.03125 248.09375 L 142.03125 236.910156 L 147.03125 236.910156 L 147.027344 243.097656 L 200.128906 243.097656 L 200.128906 147.03125 L 189.992188 147.03125 C 189.992188 175.585938 189.992188 204.144531 189.992188 232.699219 L 189.992188 232.960938 L 126.898438 232.957031 L 126.898438 169.863281 L 165.910156 169.863281 L 165.910156 174.859375 L 131.894531 174.859375 L 131.894531 227.960938 L 169.863281 227.960938 Z M 169.863281 189.992188"
          stroke-linecap="round"
        />
      </g>
    </g>
  </g>
</svg>
